<svg width="1040" height="221" viewBox="0 0 1040 221" fill="black" xmlns="http://www.w3.org/2000/svg">
<path d="M149.629 180.735H109.111V73.1273L149.629 59.1548V180.735Z"/>
<path d="M129.371 53.9635C143.762 53.9635 155.428 42.006 155.428 27.2557C155.428 12.5054 143.762 0.547852 129.371 0.547852C114.98 0.547852 103.313 12.5054 103.313 27.2557C103.313 42.006 114.98 53.9635 129.371 53.9635Z" />
<path d="M450.803 60.3192C445.443 65.8499 423.787 89.3315 412.25 117.628H411.563V73.1273L450.436 59.7249L450.803 60.3192Z" />
<path d="M486.907 59.1912C452.318 59.1912 411.563 119.363 411.563 150.898V180.747H452.093V133.068C452.093 108.507 454.696 92.6791 465.264 83.9099C465.264 97.6034 476.103 108.713 489.463 108.713C503.072 108.713 514.053 97.2031 513.651 83.17C513.248 68.8943 500.835 59.1912 486.907 59.1912Z" />
<path d="M202.561 103.728C202.561 119.945 209.614 129.381 218.383 129.381C227.139 129.381 234.192 122.249 234.192 103.728C234.192 97.2029 232.192 88.9189 228.406 82.9757L228.879 82.4906C250.7 85.6683 272.757 98.343 272.757 112.097C272.757 132.631 249.623 143.705 218.383 143.705C211.176 143.705 205.094 142.638 199.414 141.255C196.171 143.608 194.467 146.131 194.467 148.278C194.467 151.468 197.449 153.263 202.904 153.263H240.073C271.444 153.263 282.2 167.538 282.2 182.19C282.2 201.887 260.273 220.978 225.637 220.978C205.366 220.978 186.125 215.52 170.303 198.2L180.243 188.012C195.165 202.53 208.62 206.727 225.637 206.727C243.718 206.727 250.735 198.649 250.735 192.281C250.735 186.484 245.966 183.67 236.18 183.67H192.207C173.38 183.67 164.907 172.827 164.907 162.408C164.907 151.856 173.108 143.414 184.989 135.227C172.22 127.598 163.996 116.597 163.996 103.728C163.996 75.7712 188.337 62.0776 218.383 62.0776H283.893V76.4019H224.631C211.448 76.4019 202.561 85.2074 202.561 103.728Z" />
<path d="M402.144 125.633C402.286 124.299 402.369 122.722 402.369 121.412C402.369 82.5756 375.176 59.1426 341.64 59.1426C308.092 59.1426 280.887 82.5635 280.887 121.412C280.887 160.758 310.139 183.658 345.249 183.658C371.732 183.658 386.512 169.067 400.274 150.291L389.553 141.025C378.134 154.015 368.786 163.099 353.639 163.099C335.392 163.099 321.428 147.72 321.428 125.621C321.428 125.633 402.144 125.633 402.144 125.633ZM344.634 73.5638C356.763 73.5638 363.745 86.0687 365.224 97.0575C366.301 105.026 365.082 111.394 354.798 111.394H321.842C323.818 89.8408 332.457 73.5638 344.634 73.5638Z" />
<path d="M100.249 76.4018V61.9927H-0.205078V76.4018H19.5213V137.628C19.5213 168.302 41.1055 183.658 59.8852 183.658C81.5877 183.658 95.3619 167.393 101.752 144.275L88.3683 139.86C84.9129 149.309 79.3275 157.641 71.0915 157.641C66.0031 157.641 60.039 153.978 60.039 143.365V76.3897H100.249V76.4018Z" />
<path d="M78.8544 53.2599V53.9513C40.514 53.7572 19.5215 42.5016 19.5215 22.21H59.8854C62.6544 37.6258 67.4114 45.4853 78.8544 53.2599Z" />
<path d="M912.059 11.3669L871.53 25.3394V65.5952C866.039 61.714 855.779 59.1427 849.283 59.1427C812.717 59.1427 790.388 89.2102 790.388 121.303C790.388 162.639 820.811 183.658 846.029 183.658C878.156 183.658 912.059 134.499 912.059 102.964V11.3669ZM851.223 169.249C840.029 169.249 831.012 150.461 831.012 121.4C831.012 92.3395 840.029 73.5518 851.223 73.5518C862.418 73.5518 871.435 92.3395 871.435 121.4C871.435 150.461 862.43 169.249 851.223 169.249Z" />
<path d="M979.072 59.1548C947.796 59.1548 924.662 75.6865 924.662 94.838C924.662 105.451 933.454 114.281 945.501 114.281C959.452 114.281 969.878 101.557 969.878 89.1253C969.878 78.6338 973.735 73.5639 979.439 73.5639C985.143 73.5639 989 78.6338 989 89.1253V110.885C944.104 122.516 922.946 137.301 922.946 156.344C922.946 173.191 940.968 183.67 963.499 183.67C995.627 183.67 1029.53 134.5 1029.53 102.976C1029.54 78.1972 1007.39 59.1548 979.072 59.1548ZM971.369 162.869C966.02 162.869 962.493 158.527 962.493 152.159C962.493 139.885 977.463 127.926 989.012 124.796C989.012 144.409 983.983 162.869 971.369 162.869Z" />
<path d="M1040.17 166.435V180.759H1002.28V179.922C1010.88 169.237 1021.78 153.566 1028.86 136.234H1029.54V153.966C1029.54 158.757 1030.73 161.874 1032.65 163.791C1034.58 165.707 1037.23 166.435 1040.17 166.435Z" />
<path d="M722.038 59.1548C688.49 59.1548 661.296 82.5757 661.296 121.412C661.296 160.249 688.49 183.67 722.038 183.67C755.585 183.67 782.779 160.249 782.779 121.412C782.779 82.5757 755.585 59.1548 722.038 59.1548ZM722.038 169.261C710.843 169.261 701.826 150.473 701.826 121.412C701.826 92.3516 710.843 73.5639 722.038 73.5639C733.232 73.5639 742.249 92.3516 742.249 121.412C742.249 150.473 733.244 169.261 722.038 169.261Z" />
<path d="M912.059 136.234V180.735H884.783V179.934C893.386 169.261 904.296 153.59 911.373 136.234H912.059Z" />
<path d="M628.139 108.665C613.868 100.454 602.022 93.6858 602.022 85.5715C602.022 77.8697 609.347 73.5639 616.684 73.5639C627.382 73.5639 635.452 83.9826 635.452 97.8945C639.854 97.8945 647.771 97.8945 647.771 97.8945V68.8943C639.002 62.1264 628.565 59.1548 615.359 59.1548C587.077 59.1548 568.605 76.7174 568.605 98.4524C568.605 111.952 574.735 124.081 592.082 134.863C608.223 144.906 616.625 152.62 616.625 159.4C616.625 166.192 610.282 169.273 604.034 169.273C593.621 169.273 584 160.722 581.148 147.101H568.617L566.274 169.455C575.658 178.164 588.568 183.694 606.164 183.694C635.689 183.694 655.924 167.624 655.924 147.781C655.9 132.717 647.463 119.775 628.139 108.665Z" />
</svg>
