<svg width="149" height="27" viewBox="0 0 149 27" fill="none" xmlns="http://www.w3.org/2000/svg">
<g clip-path="url(#clip0_210_2298)">
<path d="M12.251 -1.33514e-05V23.6153L17.5953 25.3093V5.50823C17.5953 4.57517 18.011 3.95566 18.6779 4.16871C19.5499 4.41068 19.7193 5.27019 19.7193 6.19286V14.1011C23.0459 15.7121 25.6649 14.1003 25.6649 9.84987C25.6649 5.50655 24.1294 3.57166 19.6113 2.016C17.8292 1.42231 14.5266 0.420481 12.251 -1.33514e-05Z" fill="#ADADAD"/>
<path d="M18.6118 21.857L27.1951 18.8004C28.1661 18.4402 28.3145 17.951 27.5287 17.6939C26.7305 17.432 25.3058 17.5069 24.3245 17.8595L18.6118 19.8758V16.6586L18.9389 16.5505C18.9389 16.5505 20.5925 15.9644 22.9183 15.7121C25.2396 15.4575 28.0864 15.7452 30.3238 16.589C32.8443 17.3901 33.1269 18.5587 32.4892 19.3719C31.8422 20.1767 30.2736 20.7589 30.2736 20.7589L18.6118 24.9503" fill="#ADADAD"/>
<path d="M2.45924 21.5316C-0.124945 20.8113 -0.555876 19.2893 0.623014 18.4102C1.71044 17.6074 3.56238 17.003 3.56238 17.003L11.2179 14.272V17.3803L5.71396 19.3542C4.73903 19.7031 4.59286 20.194 5.37813 20.4509C6.17743 20.7181 7.59592 20.6463 8.57141 20.2861L11.2179 19.3314V22.1062C11.0473 22.1348 10.8576 22.1637 10.6845 22.1932C8.04593 22.6314 5.23477 22.4515 2.45924 21.5316Z" fill="#ADADAD"/>
<path d="M31.1258 23.6989C31.1258 23.7775 31.107 23.8289 31.0669 23.8547C31.0206 23.8861 30.96 23.9019 30.8836 23.9019H30.4999V23.51H30.9061C30.9636 23.51 31.0065 23.5198 31.041 23.5333C31.0972 23.5608 31.1258 23.6161 31.1258 23.6989ZM31.4032 24.5974C31.3839 24.5918 31.3704 24.5727 31.3592 24.5405C31.3541 24.5155 31.3505 24.4801 31.3494 24.4346L31.3432 24.2569C31.3404 24.1747 31.3247 24.1107 31.2902 24.0725C31.2731 24.0425 31.2425 24.0234 31.2133 24.0026C31.2515 23.9678 31.2865 23.9322 31.3163 23.8932C31.3505 23.8379 31.3704 23.7629 31.3704 23.6829C31.3704 23.5198 31.3003 23.4039 31.1636 23.3396C31.0955 23.3107 31.0065 23.2919 30.9008 23.2919H30.2527V24.6867H30.4999V24.1188H30.8766C30.9468 24.1188 30.9939 24.1278 31.0284 24.1393C31.075 24.1691 31.1002 24.214 31.1033 24.2912L31.1154 24.5087C31.119 24.5643 31.1227 24.5974 31.1258 24.6227L31.1443 24.6707L31.1493 24.6867H31.4206V24.6073M29.7449 24.0209C29.7449 23.736 29.8515 23.4746 30.0462 23.2809C30.2457 23.083 30.5119 22.9764 30.7885 22.9764C31.0654 22.9764 31.325 23.083 31.5197 23.2809C31.7161 23.4746 31.8221 23.736 31.8221 24.0209C31.8221 24.5918 31.3581 25.0553 30.7885 25.0553C30.5119 25.0553 30.2457 24.9497 30.0462 24.7544C29.8515 24.5573 29.7449 24.2988 29.7449 24.0209ZM30.7885 25.2692C31.1227 25.2692 31.433 25.1372 31.6695 24.9037C31.9032 24.6659 32.035 24.3555 32.035 24.0209C32.035 23.6832 31.9032 23.3674 31.6695 23.1341C31.433 22.8955 31.1227 22.7678 30.7885 22.7678C30.095 22.7678 29.5342 23.3278 29.5342 24.0209C29.5342 24.3555 29.6635 24.6659 29.8972 24.9037C30.134 25.1372 30.4544 25.2692 30.7885 25.2692Z" fill="#ADADAD"/>
<path d="M50.184 6.19734L43.7301 6.19453C43.7035 6.19453 43.6821 6.21558 43.6821 6.24V21.3424C43.6821 21.3665 43.7035 21.3893 43.7301 21.3893H46.3457L46.3917 21.3424L46.3948 7.87931L46.4102 7.85685L49.4052 7.85124C50.4957 7.85124 51.0947 8.95076 51.0947 10.9432C51.0947 12.9367 50.4957 14.0388 49.4052 14.0388L47.6026 14.0368C47.5757 14.0368 47.5574 14.0573 47.5574 14.0831V15.65C47.5574 15.6806 47.5757 15.6991 47.6026 15.6991H50.184C51.0947 15.6991 51.9865 15.277 52.6301 14.5513C53.3927 13.6902 53.7942 12.4469 53.7942 10.9569C53.7942 8.06963 52.3847 6.19734 50.184 6.19734Z" fill="#ADADAD"/>
<path d="M58.0717 6.19453H55.4544C55.4246 6.19453 55.4033 6.21558 55.4033 6.24V21.3424C55.4033 21.3668 55.4246 21.3893 55.4544 21.3893H58.0717L58.1196 21.3424V6.24L58.0717 6.19453Z" fill="#ADADAD"/>
<path d="M69.4863 9.87066C69.4863 9.84399 69.4628 9.82378 69.437 9.82378H64.7761C60.5967 9.82378 60.0625 12.8933 60.0625 15.5908L60.0656 17.9238C60.0656 19.9313 61.3135 21.389 63.0291 21.389H65.572L65.618 21.3424V19.7772C65.618 19.7517 65.5964 19.729 65.572 19.729L63.7557 19.732C63.3371 19.7233 62.7738 19.5462 62.7738 18.1068V15.588C62.7718 13.9142 62.9275 12.8441 63.2748 12.2353C63.6511 11.5633 64.2433 11.4732 64.7761 11.4732H66.7627L66.7795 11.4968L66.777 21.3424C66.777 21.3663 66.7972 21.389 66.825 21.389H69.4375C69.4633 21.389 69.4863 21.3663 69.4863 21.3424" fill="#ADADAD"/>
<path d="M88.3135 12.5146L87.0247 12.4164C86.0582 12.333 85.3394 11.7974 85.3394 10.2128C85.3394 8.36272 86.1687 7.85661 87.2758 7.85661H90.843L90.8904 7.81058V6.24004L90.843 6.19485H90.7684L86.9037 6.19569C84.4691 6.19569 82.7378 7.62643 82.7378 10.4778V10.6019C82.7378 12.8517 84.1215 14.4756 86.1836 14.6334L87.4663 14.7285C88.4448 14.8026 89.0542 15.6781 89.0542 17.0067V17.3803C89.0542 18.2109 88.8466 19.7306 87.0662 19.7306H83.3598C83.3348 19.7306 83.3132 19.7523 83.3132 19.7789V21.3422L83.3598 21.389H87.9614C89.3794 21.389 91.7537 20.815 91.7537 16.9536C91.7537 15.5546 91.4361 14.452 90.7922 13.6551C90.2435 12.9707 89.4304 12.6005 88.3135 12.5146Z" fill="#ADADAD"/>
<path d="M109.748 9.87066C109.748 9.84399 109.726 9.82378 109.701 9.82378H105.03C100.86 9.82378 100.32 12.8933 100.32 15.5908L100.323 17.9238C100.323 19.9313 101.57 21.389 103.295 21.389H105.83L105.878 21.3424V19.7772C105.878 19.7517 105.855 19.729 105.83 19.729L104.013 19.732C103.596 19.7233 103.038 19.5462 103.036 18.1068V15.588C103.036 13.9142 103.194 12.8441 103.533 12.2353C103.909 11.5633 104.505 11.4732 105.029 11.4732H107.025L107.044 11.4968L107.04 21.3424C107.04 21.3663 107.061 21.389 107.087 21.389H109.704C109.729 21.389 109.748 21.3663 109.748 21.3424" fill="#ADADAD"/>
<path d="M99.2335 9.82402H96.3943L96.3794 9.80662V7.90345C96.3794 7.87819 96.36 7.85685 96.3337 7.85685H93.7189C93.6922 7.85685 93.6689 7.87819 93.6689 7.90345V17.9251C93.6689 19.9324 94.9197 21.3893 96.6417 21.3893H98.5144C98.5413 21.3893 98.5621 21.3665 98.5621 21.3424V19.7789C98.5621 19.7533 98.5413 19.7292 98.5144 19.7292H97.3647C97.0701 19.7247 96.3794 19.7098 96.3766 18.2308V11.4841L96.3926 11.4689C97.2623 11.4734 99.2335 11.4689 99.2335 11.4689L99.2795 11.426V9.8709C99.2795 9.84451 99.2579 9.82402 99.2335 9.82402Z" fill="#ADADAD"/>
<path d="M117.494 9.82402H114.671L114.652 9.80662V7.90345L114.608 7.85685H111.988C111.962 7.85685 111.94 7.87819 111.94 7.90345V17.9251C111.94 19.9324 113.188 21.3893 114.909 21.3893H116.781C116.81 21.3893 116.828 21.3665 116.828 21.3424V19.7789C116.828 19.7533 116.81 19.7292 116.781 19.7292H115.632C115.337 19.7247 114.652 19.7098 114.652 18.2308V11.4841L114.667 11.4689C115.53 11.4734 117.494 11.4689 117.494 11.4689L117.54 11.426V9.8709C117.54 9.84451 117.517 9.82402 117.494 9.82402Z" fill="#ADADAD"/>
<path d="M121.817 9.82402H119.203C119.179 9.82402 119.155 9.84451 119.155 9.8709V21.3424L119.203 21.3893H121.817C121.846 21.3893 121.866 21.3665 121.866 21.3424V9.8709C121.866 9.84451 121.846 9.82402 121.817 9.82402Z" fill="#ADADAD"/>
<path d="M121.817 6.19457H119.203L119.155 6.24004V8.43318C119.155 8.45984 119.179 8.47949 119.203 8.47949H121.817C121.846 8.47949 121.866 8.45984 121.866 8.43318V6.24004C121.866 6.21562 121.846 6.19457 121.817 6.19457Z" fill="#ADADAD"/>
<path d="M139.908 9.82402H135.241C135.217 9.82402 135.195 9.84451 135.195 9.8709L135.194 21.3424L135.238 21.3893H137.857L137.901 21.3424L137.898 11.4939L137.916 11.4748L139.905 11.4734C140.444 11.4734 141.034 11.5602 141.411 12.1828C141.757 12.7453 141.913 13.7342 141.913 15.2862C141.916 15.3533 141.911 21.3424 141.911 21.3424C141.911 21.3665 141.932 21.3893 141.958 21.3893H144.566C144.594 21.3893 144.615 21.3665 144.615 21.3424V15.5894C144.615 12.8932 144.077 9.82402 139.908 9.82402Z" fill="#ADADAD"/>
<path d="M130.192 18.9696C129.781 19.6478 129.127 19.7385 128.534 19.7385C127.947 19.7385 127.292 19.6478 126.876 18.9696C126.501 18.3594 126.327 17.2902 126.327 15.6043V15.5908C126.327 13.6012 126.572 12.4708 127.119 11.9324C127.447 11.6056 127.871 11.4732 128.534 11.4732C129.207 11.4732 129.627 11.6056 129.955 11.9324C130.497 12.4708 130.742 13.6059 130.742 15.6043C130.742 17.2924 130.568 18.3625 130.192 18.9696ZM128.534 9.82402C124.167 9.82402 123.608 12.9078 123.608 15.6043C123.608 18.3038 124.167 21.3977 128.534 21.3977C132.902 21.3977 133.459 18.3038 133.459 15.6043C133.459 12.9078 132.902 9.82402 128.534 9.82402Z" fill="#ADADAD"/>
<path d="M70.9624 9.82404L70.9321 9.86951L74.8116 21.236C74.8181 21.2616 74.8181 21.3009 74.81 21.3259L72.6256 26.9537C72.6163 26.9804 72.6284 27 72.6542 27H74.9289C74.957 27 74.9864 26.9804 74.9957 26.9537L81.8059 9.86951C81.8154 9.84229 81.8033 9.82404 81.7767 9.82404H79.2949C79.268 9.82404 79.2396 9.84453 79.2312 9.86951L76.348 17.3388H76.3157L73.7702 9.86951C73.7643 9.84229 73.7351 9.82404 73.7091 9.82404" fill="#ADADAD"/>
<path d="M147.978 19.8218C147.978 19.8976 147.957 19.947 147.917 19.9765C147.873 20.0085 147.812 20.022 147.737 20.022H147.353V19.6315H147.758C147.816 19.6315 147.86 19.6405 147.892 19.6557C147.948 19.6829 147.978 19.7373 147.978 19.8218ZM148.254 20.7198C148.236 20.7128 148.222 20.6937 148.21 20.662C148.207 20.6384 148.203 20.5997 148.202 20.5562L148.196 20.3807C148.192 20.2948 148.177 20.2305 148.141 20.1955C148.124 20.1646 148.094 20.1435 148.066 20.1219C148.102 20.0882 148.138 20.0537 148.168 20.0138C148.203 19.9585 148.222 19.8867 148.222 19.8067C148.222 19.6405 148.152 19.5254 148.016 19.4617C147.945 19.4331 147.86 19.414 147.753 19.414H147.106V20.8082H147.353V20.2395H147.729C147.798 20.2395 147.848 20.2493 147.879 20.2606C147.926 20.2903 147.951 20.3361 147.955 20.4124L147.968 20.6311C147.971 20.685 147.974 20.7198 147.978 20.7417L147.995 20.7914L148 20.8082H148.272V20.7274M146.597 20.1424C146.597 19.8566 146.703 19.5973 146.9 19.4008C147.099 19.2051 147.364 19.0979 147.639 19.0979C147.917 19.0979 148.176 19.2051 148.371 19.4008C148.568 19.5973 148.675 19.8566 148.675 20.1424C148.675 20.7133 148.209 21.1771 147.639 21.1771C147.364 21.1771 147.099 21.0712 146.9 20.8759C146.703 20.6802 146.597 20.4197 146.597 20.1424ZM147.639 21.3893C147.974 21.3893 148.286 21.2574 148.523 21.0255C148.754 20.7889 148.886 20.4756 148.886 20.1424C148.886 19.8047 148.754 19.4884 148.523 19.2551C148.286 19.0179 147.974 18.8893 147.639 18.8893C146.949 18.8893 146.388 19.4485 146.388 20.1424C146.388 20.4756 146.516 20.7889 146.75 21.0255C146.987 21.2574 147.306 21.3893 147.639 21.3893Z" fill="#ADADAD"/>
</g>
<defs>
<clipPath id="clip0_210_2298">
<rect width="148.886" height="27" fill="white"/>
</clipPath>
</defs>
</svg>
