<svg width="121" height="27" viewBox="0 0 121 27" fill="none" xmlns="http://www.w3.org/2000/svg">
<g clip-path="url(#clip0_210_2378)">
<path d="M3.37447 1.79073C3.05171 1.93744 2.37684 2.05481 1.87803 2.05481C1.40856 2.08415 0.763047 2.2602 0.469629 2.4656C0.000159591 2.8177 0.000157811 2.90572 0.440285 4.13808C0.704362 4.87163 0.997782 5.72254 1.05647 6.0453C1.14449 6.36806 1.40857 7.33634 1.6433 8.15791C1.8487 9.00882 2.25948 10.4759 2.52356 11.3855C3.34513 14.4664 3.84394 16.2856 4.25472 17.782C4.48946 18.5743 4.72419 19.6306 4.81222 20.1294C4.8709 20.5988 5.07629 21.3617 5.25234 21.8019C5.54576 22.6234 5.57511 22.6234 8.36258 22.6234C11.0914 22.6234 11.1794 22.5941 11.4435 21.8605C11.6195 21.4498 11.7369 20.5695 11.7369 19.8946C11.7369 19.2198 11.9423 17.9287 12.177 17.0485C12.4118 16.1682 12.6171 14.9359 12.6171 14.349C12.6171 13.7622 12.8225 12.5005 13.0573 11.5616C13.292 10.652 13.4974 9.21421 13.4974 8.3633C13.4974 6.22135 13.9669 5.01833 14.8178 5.01833C15.7567 5.01833 16.1382 6.28003 16.1382 9.53697C16.1382 11.0041 16.2849 13.058 16.4609 14.1143C16.637 15.1706 16.8717 17.4593 16.9597 19.2491L17.1651 22.4767L20.6275 22.5647C23.9724 22.6528 24.0605 22.6234 24.0605 22.0073C24.0605 21.6552 24.2659 20.7749 24.5006 20.012C24.7353 19.2785 25.1168 17.8114 25.3808 16.7551C25.6449 15.6988 25.997 14.4371 26.1731 13.9676C26.3491 13.4688 26.5839 12.5005 26.7012 11.767C26.8186 11.0334 27.0533 10.0358 27.2294 9.56632C27.4054 9.06751 27.7575 7.83515 28.0216 6.77884C28.315 5.72254 28.6965 4.51952 28.9312 4.0794C29.3713 3.22848 29.4887 1.49731 29.1073 1.49731C28.8725 1.49731 27.4641 2.08415 26.4665 2.6123C26.0557 2.8177 24.7353 4.98899 23.9138 6.77884C23.6497 7.33634 23.2976 8.9208 23.1802 10.2999C23.0335 11.6789 22.7694 13.5861 22.6227 14.5544C22.4467 15.5227 22.3 16.9311 22.3 17.7233C22.3 18.9264 22.2119 19.1611 21.5664 19.4545C21.1556 19.6306 20.7448 19.6893 20.6275 19.5719C20.3927 19.3372 20.07 16.9018 19.6592 12.5005C19.5125 10.7106 19.2484 8.80343 19.0724 8.24594C18.9256 7.68844 18.7789 6.22135 18.7789 4.98899C18.7789 3.14046 18.6909 2.67099 18.1921 2.23086C17.6639 1.76139 17.4292 1.73205 16.1088 2.02547C15.2873 2.23086 13.7908 2.37757 12.7639 2.37757H10.886L10.5926 3.46322C10.4165 4.07939 10.1524 6.36806 9.97638 8.53935C9.82967 10.7106 9.5656 13.6155 9.38954 14.9946C9.24284 16.3736 9.18415 17.7527 9.27218 18.0754C9.47757 18.9264 8.74402 19.8066 8.01047 19.5719C7.45298 19.3958 7.0422 17.7233 6.57273 13.5275C6.4847 12.97 6.24997 11.5029 6.01523 10.2999C5.80984 9.09685 5.39905 6.77884 5.10564 5.16504C4.43077 1.02785 4.54814 1.29192 3.37447 1.79073ZM115.724 1.93744C115.49 2.55362 114.639 2.72967 113.67 2.37757C113.23 2.20152 112.555 2.11349 112.233 2.20152C111.47 2.40691 109.533 4.31413 109.269 5.10636C109.152 5.45846 108.888 5.89859 108.682 6.13332C108.448 6.33872 108.272 6.83753 108.272 7.18963C108.272 7.57107 108.066 8.30462 107.802 8.80343C107.245 9.91842 107.391 12.2658 108.007 12.6766C108.33 12.8526 108.389 13.5861 108.33 15.552C108.301 17.4593 108.389 18.2808 108.682 18.5743C108.888 18.809 109.181 19.2785 109.269 19.6306C109.387 19.9827 109.621 20.2761 109.768 20.2761C109.915 20.2761 110.032 20.4815 110.032 20.7456C110.032 21.0096 110.296 21.5378 110.619 21.9486C110.942 22.3594 111.206 22.8582 111.206 23.0342C111.206 23.4157 112.262 24.3839 112.673 24.3839C113.054 24.3839 113.054 23.2983 112.673 23.0636C112.526 22.9755 112.379 22.6234 112.379 22.3007C112.379 21.9779 112.174 21.6552 111.939 21.5671C111.705 21.4498 111.499 21.2444 111.499 21.0977C111.499 20.9216 111.03 20.012 110.443 19.0731C109.475 17.4299 109.416 17.2245 109.621 15.7868C109.885 13.9383 109.856 13.7035 109.122 12.2658C108.594 11.1801 108.594 10.0064 109.152 9.2729C109.298 9.09685 109.504 8.45133 109.621 7.80581C109.973 5.89859 111.998 3.25782 113.084 3.25782C113.817 3.28717 114.903 4.57821 114.404 4.90097C114.228 4.98899 113.964 4.90097 113.817 4.69557C113.641 4.40215 113.494 4.37282 113.26 4.60755C112.409 5.45846 114.58 7.54173 115.783 7.01358C116.575 6.63214 117.456 5.37043 117.25 4.84228C116.986 4.16742 116.487 4.37281 116.487 5.16504C116.487 5.98661 115.988 6.16266 115.695 5.42912C115.578 5.1357 115.724 4.7836 115.988 4.57821C116.282 4.37281 116.487 3.99137 116.487 3.7273C116.487 2.87638 117.338 3.22848 118.277 4.49018C119.128 5.66385 119.157 5.86925 118.981 7.51239C118.893 8.48067 118.688 9.39027 118.541 9.53697C118.365 9.71303 118.394 9.97711 118.571 10.1825C119.128 10.8574 119.275 13.9383 118.776 14.4371C118.16 15.0532 117.954 16.0802 118.277 17.1072C118.571 18.1635 118.16 20.1294 117.485 20.7749C117.25 21.0096 117.074 21.4498 117.074 21.7432C117.074 22.0366 116.869 22.33 116.634 22.4474C116.076 22.6528 116.047 23.6211 116.605 24.0612C116.927 24.3253 117.162 24.1492 117.778 23.0929C118.189 22.3594 118.541 21.6552 118.541 21.5084C118.541 21.3617 118.747 21.0683 118.981 20.8629C119.216 20.6575 119.421 20.1881 119.421 19.8066C119.421 19.4545 119.568 19.0437 119.715 18.9557C119.891 18.8677 120.008 18.4569 120.008 18.0754C120.008 17.694 119.891 17.2832 119.715 17.1952C119.304 16.9605 119.333 15.0826 119.744 14.9359C120.243 14.7598 120.595 12.2951 120.302 11.0041C120.155 10.3879 120.126 8.9208 120.214 7.74713C120.36 5.89859 120.302 5.54649 119.686 4.54886C118.805 3.11111 118.248 2.58296 117.074 1.96679C115.9 1.37995 115.93 1.40929 115.724 1.93744ZM34.4768 3.22848C31.572 3.49256 31.2786 3.72729 30.8384 6.10398C30.1636 9.77171 30.1342 12.8233 30.7797 16.3149C31.8947 22.6234 31.9534 22.6821 38.2326 22.5647L42.3991 22.4767L42.4871 21.215L42.5752 19.9827H40.4625C37.9391 19.9827 34.9756 19.2198 34.2714 18.3689C33.89 17.9581 33.7726 17.3712 33.8313 16.3443L33.89 14.9065L35.7972 14.4957C36.8535 14.2904 38.5553 13.9969 39.5823 13.8796C41.3721 13.6742 41.4895 13.6155 41.7242 12.7939C42.1644 11.1214 42.047 11.0921 37.7044 11.3268C33.2445 11.5616 33.2445 11.5616 34.1834 9.33158C34.4181 8.74475 34.6235 7.95252 34.6235 7.57107C34.6235 6.95489 34.8289 6.77884 36.0319 6.48543C36.7948 6.28003 38.526 6.0453 39.8464 5.92793L42.3111 5.75188L42.6925 4.63689C43.0446 3.63927 43.0153 3.5219 42.5458 3.25782C41.959 2.93506 37.9098 2.93506 34.4768 3.22848ZM59.5054 3.22848C55.955 3.49256 55.9257 3.55124 55.8083 9.85974C55.691 15.288 56.0431 17.9287 57.2754 20.7749C57.9796 22.3887 58.7718 22.6234 63.4665 22.6234C67.6624 22.6234 68.0439 22.4767 68.0732 20.7749V19.9827H65.8139C63.5252 19.9827 60.6497 19.3078 59.7988 18.5743C59.3 18.1928 58.8892 15.8748 59.1533 15.1413C59.2707 14.9065 59.6521 14.7011 60.0336 14.7011C60.3857 14.7011 61.4713 14.4957 62.4102 14.261C63.3198 14.0263 64.6402 13.8209 65.2857 13.8209C66.7528 13.8209 67.193 13.4394 67.193 12.1191V11.0921L63.2318 11.2975C59.0946 11.5029 59.124 11.5322 59.2413 10.2999C59.2707 10.0651 59.5054 9.15553 59.7401 8.30462C60.1216 7.04292 60.3563 6.7495 60.9725 6.60279C61.4126 6.51477 62.1462 6.30937 62.6156 6.16266C63.0851 6.01595 64.3761 5.89859 65.4911 5.89859H67.5157L67.9558 4.84228C68.66 3.1698 68.2493 2.96441 64.7282 3.02309C63.1144 3.05243 60.7378 3.14046 59.5054 3.22848ZM44.7758 3.49256C44.6878 3.63927 44.7465 5.25307 44.8932 7.10161C45.0399 8.95014 45.1866 13.1754 45.1866 16.5203V22.5647L50.2627 22.6821C53.0208 22.7408 55.4269 22.6821 55.5736 22.5647C55.7496 22.4474 55.6323 21.8899 55.3389 21.215C54.84 20.1294 54.752 20.0707 52.7861 19.7479C51.6711 19.5425 50.3214 19.3958 49.7933 19.3958C48.0621 19.3958 47.798 18.9557 48.2968 16.7551C48.5022 15.6988 48.7076 13.7915 48.7369 12.5005C48.7663 11.2095 48.8543 9.74237 48.9717 9.2729C49.1771 8.39264 49.0597 7.74712 48.2381 4.7836L47.798 3.25782H46.3603C45.568 3.25782 44.8638 3.37519 44.7758 3.49256ZM70.2445 3.63927C70.1565 3.90335 70.1565 4.25545 70.2738 4.46084C70.4499 4.72492 70.89 13.4981 71.1248 21.0096L71.1541 22.4767H81.101L81.3064 21.5965C81.4237 21.0977 81.8052 19.9827 82.1573 19.1024C82.5094 18.2222 82.8908 17.0778 83.0376 16.6084C83.1843 16.1095 83.419 15.3173 83.5657 14.8478C85.0621 10.4759 85.1208 9.06751 83.9178 7.42436C83.4483 6.7495 83.0376 6.07464 83.0376 5.95727C83.0376 5.42912 81.3651 4.16742 80.2501 3.84466C79.6046 3.66861 77.1398 3.43388 74.7631 3.34585C70.9781 3.19914 70.4206 3.22848 70.2445 3.63927ZM77.0225 6.45608C78.0494 6.77884 79.2818 7.45371 80.0447 8.09923C81.4531 9.30224 81.5705 10.0651 80.8369 12.5298C80.6022 13.3221 80.3968 14.2904 80.3968 14.7011C80.3674 15.5521 79.4285 18.4569 79.0471 18.7797C78.6069 19.1611 75.2326 20.0413 74.6458 19.924C74.1763 19.836 74.0883 19.5719 74.0883 18.2808C74.1176 17.4593 74.147 14.3197 74.1763 11.3268C74.235 5.1357 74.0296 5.51714 77.0225 6.45608ZM88.6712 3.60993C88.4658 3.81532 88.3191 4.31413 88.3191 4.72492C88.3191 5.1357 88.1724 5.92793 87.9963 6.48543C87.8203 7.04292 87.5855 8.30462 87.4388 9.2729C87.3215 10.2412 87.0867 11.8256 86.9107 12.7939C86.0891 17.606 85.6196 21.0977 85.737 21.8899C85.825 22.6528 85.9717 22.7701 86.7933 22.8582C88.1724 23.0049 88.5245 22.5648 88.7592 20.4228C88.8472 19.3665 89.082 18.4275 89.2287 18.3395C89.9329 17.9287 93.6299 17.3419 95.6839 17.3419C98.2366 17.3419 98.0899 17.1659 98.442 20.4228C98.5594 21.3911 98.7941 22.3594 98.9408 22.5354C99.3516 23.0342 101.083 23.0342 101.464 22.5354C101.816 22.154 101.494 19.1318 100.936 17.0485C100.76 16.491 100.643 15.5814 100.643 15.0532C100.643 14.173 100.291 12.4418 99.4396 8.97948C99.2636 8.33396 99.0288 7.21897 98.9115 6.48543C98.7648 5.75188 98.5007 4.72492 98.2953 4.19676L97.9432 3.25782H93.4832C90.4023 3.25782 88.9059 3.37519 88.6712 3.60993ZM94.7156 6.69082C95.0384 7.16029 95.3611 7.89383 95.4491 8.39264C95.6252 9.44895 96.1533 11.0041 96.7108 12.1484C96.9456 12.6179 97.1216 13.3514 97.1216 13.8209V14.6718L93.718 14.7598C91.8401 14.8185 90.1676 14.7598 90.0209 14.6718C89.6395 14.4371 89.9329 12.7059 90.5197 11.5616C90.7544 11.1214 90.9598 10.4759 90.9598 10.1532C90.9598 9.83039 91.1946 8.9208 91.5173 8.12857C91.8988 7.10161 92.2802 6.60279 92.8964 6.30937C94.0701 5.81056 94.0701 5.81056 94.7156 6.69082Z" fill="#ADADAD"/>
<path d="M115.959 8.09927C115.49 8.45137 115.167 8.48072 114.756 8.27532C114.316 8.01125 114.11 8.09927 113.729 8.68611C113.465 9.09689 112.966 9.41965 112.585 9.41965C112.233 9.449 111.558 9.77176 111.059 10.1532L110.208 10.8574L110.912 11.6203C111.294 12.0311 111.851 12.3538 112.145 12.3538C112.966 12.3538 114.14 13.2341 114.14 13.8209C114.14 14.3197 113.318 15.0239 111.939 15.7281C110.707 16.3737 111.176 18.2222 112.555 18.2222C112.907 18.2222 113.406 18.4569 113.612 18.7797C113.817 19.0731 114.257 19.3665 114.58 19.4546C114.961 19.5132 115.137 19.7773 115.108 20.1294C115.079 20.4522 115.108 20.5402 115.196 20.3348C115.284 20.1588 115.754 19.9827 116.194 19.9827C117.543 19.9827 117.455 19.5426 115.9 18.5743C114.844 17.8994 114.433 17.4593 114.433 16.9898C114.404 16.403 114.375 16.3737 114.11 16.8138C113.788 17.4006 112.379 17.518 112.379 16.9605C112.379 16.491 113.494 15.7868 113.876 16.0509C114.022 16.1389 114.58 15.9042 115.108 15.4934C115.636 15.112 116.34 14.7012 116.663 14.5838C117.661 14.2611 117.749 13.2928 116.839 12.7059C115.578 11.8844 114.316 11.5323 113.788 11.8844C113.406 12.1191 113.172 12.0017 112.731 11.4736C112.409 11.0628 112.203 10.652 112.291 10.5346C112.526 10.0945 113.817 10.2999 114.11 10.7987C114.404 11.2682 114.404 11.2682 114.433 10.7107C114.433 10.0065 114.961 9.41965 115.607 9.41965C116.135 9.41965 117.426 8.12862 117.162 7.8352C116.898 7.57112 116.693 7.60046 115.959 8.09927ZM116.194 13.2341C116.194 13.6155 115.079 14.173 114.697 13.9676C114.287 13.6742 114.961 12.9407 115.636 12.9407C115.959 12.9407 116.194 13.058 116.194 13.2341Z" fill="#ADADAD"/>
</g>
<defs>
<clipPath id="clip0_210_2378">
<rect width="120.706" height="27" fill="white"/>
</clipPath>
</defs>
</svg>
