<svg width="129" height="27" viewBox="0 0 129 27" fill="none" xmlns="http://www.w3.org/2000/svg">
<g clip-path="url(#clip0_210_2343)">
<path d="M80.8303 7.65271C86.2815 7.65271 90.4234 11.8563 90.4234 17.3264C90.4234 22.8234 86.2815 27 80.8303 27C75.4327 27 71.2374 22.8234 71.2374 17.3264C71.2374 11.8563 75.4327 7.65271 80.8303 7.65271ZM58.8806 7.92214C64.6524 7.92214 68.6339 11.8563 68.6339 17.3803C68.6339 22.8503 64.5723 26.9461 58.8272 26.9461C57.3241 26.9461 55.993 26.804 54.7906 26.7862L54.5518 26.7844H52.6279L52.6012 26.7575C52.6012 26.7575 52.7299 25.4847 52.7346 23.2707L52.7348 11.5599C52.7348 9.31114 52.606 7.99743 52.6013 7.9504L52.6012 7.9491L52.6279 7.92214H58.8806ZM5.47788 7.92214C9.13865 7.92214 12.3185 10.0239 12.3185 13.7425C12.3185 17.5688 9.16538 19.8323 5.47788 19.8323C5.12077 19.8323 4.10627 19.7832 3.59646 19.7319L3.52719 19.7246L3.50045 19.7515L3.50058 23.2707C3.50518 25.4437 3.62933 26.71 3.63392 26.7562L3.63405 26.7575L3.60738 26.7844H0.0266688L0 26.7575C0 26.7575 0.128787 25.4847 0.13347 23.2707L0.133601 23.1467V11.5599C0.133601 9.31114 0.00481405 7.99743 0.000130891 7.95041L0 7.9491L0.0266688 7.92214H5.47788ZM21.9851 7.92214L22.0118 7.9491C22.0118 7.9491 22.1372 8.48017 22.5094 9.37076L22.5462 9.45806L29.1998 24.7635C29.773 26.0245 30.2446 26.7221 30.2678 26.7562L30.2687 26.7575V26.7844H26.5812L26.5544 26.7575L26.552 26.7513C26.5264 26.688 26.3048 26.1358 25.9481 25.156L25.9131 25.0599L24.6839 22.1767H16.5606L15.4116 25.0599C14.9704 26.1593 14.8821 26.623 14.8774 26.7474L14.8772 26.7575L14.8505 26.7844H11.163V26.7575C11.163 26.7575 11.671 26.0915 12.1917 24.8594L12.2318 24.7635L18.538 9.45806C18.9263 8.54446 19.0388 7.98483 19.0454 7.95075L19.0457 7.9491L19.0725 7.92214H21.9851ZM35.4195 7.92214L45.5202 21.0449H45.5468L45.5467 11.4359C45.5421 9.26292 45.418 7.99656 45.4134 7.95041L45.4132 7.9491L45.44 7.92214H48.7L48.7267 7.9491C48.7267 7.9491 48.5979 9.22192 48.5932 11.4359V23.2707C48.5978 25.4437 48.722 26.71 48.7266 26.7562L48.7267 26.7575L48.7 26.7844H45.6538L35.4996 13.473H35.4729V23.1467C35.4729 25.3955 35.6017 26.7091 35.6064 26.7562L35.6066 26.7575L35.5798 26.7844H32.3198L32.2931 26.7575C32.2931 26.7575 32.4219 25.4847 32.4266 23.2707L32.4267 9.80837C32.4267 9.42105 32.2303 8.86046 31.8612 8.05549L31.8121 7.9491L31.8388 7.92214H35.4195ZM99.6434 7.92214C103.304 7.92214 105.683 10.6706 105.683 13.7964C105.683 16.0526 103.919 18.3089 102.002 18.7878L101.915 18.8084V18.8353C102.582 19.0164 103.249 19.57 103.703 20.2815L103.759 20.3712L105.576 23.3892C106.762 25.3665 107.8 26.6656 107.87 26.7528L107.874 26.7575V26.7844H103.598L103.571 26.7575C103.571 26.7575 103.056 25.483 101.847 23.4963L101.781 23.3892L100.258 20.9102C99.6304 19.908 98.9515 19.5511 97.2445 19.5364L97.1317 19.5359V23.1467C97.1317 25.3955 97.2605 26.7091 97.2652 26.7562L97.2653 26.7575L97.2385 26.7844H93.6579L93.6311 26.7575C93.6311 26.7575 93.76 25.4847 93.7647 23.2707V11.4359C93.7601 9.26292 93.6358 7.99656 93.6312 7.9504L93.6311 7.9491L93.6579 7.92214H99.6434ZM120.539 7.92214L120.566 7.9491C120.566 7.9491 120.7 8.51499 121.1 9.45806L127.754 24.7635C128.342 26.0569 128.823 26.7575 128.823 26.7575V26.7844H125.135L125.109 26.7575C125.109 26.7575 124.868 26.1647 124.467 25.0599L123.238 22.1767H115.115L113.966 25.0599C113.512 26.1916 113.431 26.6497 113.431 26.7575L113.405 26.7844H109.717V26.7575C109.717 26.7575 110.252 26.0569 110.786 24.7635L117.092 9.45806C117.493 8.51499 117.6 7.9491 117.6 7.9491L117.627 7.92214H120.539ZM80.8303 10.7515C77.3566 10.7515 74.6578 13.6078 74.6578 17.3264C74.6578 21.0449 77.3566 23.9012 80.8303 23.9012C84.3309 23.9012 87.0297 21.0449 87.0297 17.3264C87.0297 13.6078 84.3309 10.7515 80.8303 10.7515ZM58.5867 10.994H56.1016V22.985C56.1016 23.497 56.1551 23.6048 56.449 23.6856C56.93 23.8203 57.7584 23.8473 58.6669 23.8473C62.6216 23.8473 65.2136 21.0449 65.2136 17.4072C65.2136 13.7425 62.6216 10.994 58.5867 10.994ZM20.4887 12.4221H20.462L17.8166 19.0779H23.3479L20.4887 12.4221ZM119.043 12.4221H119.016L116.371 19.0779H121.902L119.043 12.4221ZM5.58473 11.0209H3.50045V16.5988C3.92804 16.6797 4.88998 16.7335 5.31754 16.7335C7.61554 16.7335 8.8982 15.6557 8.8982 13.7425C8.8982 11.7755 7.42849 11.0209 5.58473 11.0209ZM99.1892 10.994H97.1317V16.4371C97.6394 16.5449 98.3875 16.5449 98.8151 16.5449C101.167 16.5449 102.262 15.2515 102.262 13.8234C102.262 12.3144 101.193 10.994 99.1892 10.994ZM82.6208 5.49699C82.9414 5.49699 83.2353 5.76649 83.2353 6.11678C83.2353 6.49405 82.9414 6.76348 82.6208 6.76348C82.2733 6.76348 81.9793 6.49405 81.9793 6.11678C81.9793 5.76649 82.2733 5.49699 82.6208 5.49699ZM79.0401 5.497C79.3607 5.497 79.6547 5.76649 79.6547 6.11679C79.6547 6.49403 79.3607 6.76348 79.0401 6.76348C78.6927 6.76348 78.3988 6.49403 78.3988 6.11679C78.3988 5.76649 78.6927 5.497 79.0401 5.497ZM80.8303 5.30841C81.151 5.30841 81.445 5.57786 81.445 5.92815C81.445 6.30542 81.151 6.57485 80.8303 6.57485C80.483 6.57485 80.189 6.30542 80.189 5.92815C80.189 5.57786 80.483 5.30841 80.8303 5.30841ZM84.0636 0.754507L84.1972 0.781465L84.224 0.808423L83.4491 4.95812L83.4223 4.98502L82.3535 4.74254L82.3268 4.71558L84.0369 0.781465L84.0636 0.754507ZM77.5971 0.754507L77.6238 0.781465L79.334 4.71558L79.3072 4.74254L78.2384 4.98502L78.2117 4.95812L77.4368 0.808423L77.4635 0.781465L77.5971 0.754507ZM80.9106 0L80.9372 0.0269579L81.3915 4.66166L81.3648 4.68863H80.296L80.2692 4.66166L80.7502 0.0269579L80.7769 0H80.9106Z" fill="#ADADAD"/>
</g>
<defs>
<clipPath id="clip0_210_2343">
<rect width="129" height="27" fill="white"/>
</clipPath>
</defs>
</svg>
