<svg width="95" height="27" viewBox="0 0 95 27" fill="none" xmlns="http://www.w3.org/2000/svg">
<g clip-path="url(#clip0_210_2334)">
<path d="M12.4281 8.24578C9.53438 8.24578 8.5077 10.5772 8.4375 10.748C8.09068 9.98608 7.52774 9.34278 6.81856 8.89795C6.10937 8.45312 5.28517 8.22635 4.44825 8.24578C3.2629 8.26398 2.13326 8.75196 1.30748 9.60253C0.47334 10.4617 0.0046886 11.6107 0 12.8081C0 17.7235 4.63725 21.7073 8.4375 21.7073C12.2364 21.7073 16.875 17.7235 16.875 12.8081C16.8701 11.6109 16.4015 10.4622 15.5675 9.6032C14.7422 8.75313 13.6134 8.26519 12.4288 8.24645L12.4281 8.24578ZM13.1909 12.9958C13.1909 14.2783 12.69 15.5081 11.7983 16.4146C11.3603 16.8623 10.8374 17.2181 10.2602 17.4614C9.68303 17.7047 9.06316 17.8305 8.43682 17.8315C7.81049 17.8305 7.19062 17.7047 6.61346 17.4614C6.03629 17.2181 5.51339 16.8623 5.07533 16.4146C4.1814 15.5013 3.68162 14.2737 3.68348 12.9958V12.8574H5.36422V12.9958C5.36275 13.8225 5.68584 14.6168 6.264 15.2077C6.54738 15.4972 6.8856 15.7273 7.2589 15.8845C7.6322 16.0418 8.0331 16.1231 8.43818 16.1237C8.84325 16.1231 9.24415 16.0418 9.61745 15.8845C9.99075 15.7273 10.329 15.4972 10.6124 15.2077C11.1909 14.6169 11.5145 13.8227 11.5135 12.9958V12.8574H13.1942L13.1909 12.9958ZM87.7365 8.2505C83.8276 8.2505 80.973 11.1206 80.973 14.9924C80.973 18.8635 83.8296 21.735 87.7365 21.735C91.6434 21.735 94.5 18.8649 94.5 14.9917C94.5 11.0524 91.6448 8.25118 87.7365 8.25118V8.2505ZM87.7365 19.0033C85.594 19.0033 84.1333 17.3441 84.1333 14.9924C84.1333 12.64 85.594 10.9829 87.7365 10.9829C89.879 10.9829 91.339 12.6421 91.339 14.9924C91.339 17.3421 89.8769 19.0033 87.7365 19.0033ZM72.7171 8.2505C68.8088 8.2505 65.9536 11.1206 65.9536 14.9924C65.9536 18.8635 68.8102 21.735 72.7171 21.735C76.624 21.735 79.4826 18.8649 79.4826 14.9917C79.4772 11.0524 76.6226 8.25118 72.7171 8.25118V8.2505ZM72.7171 19.0033C70.576 19.0033 69.1146 17.3441 69.1146 14.9924C69.1146 12.64 70.576 10.9829 72.7171 10.9829C74.8582 10.9829 76.3195 12.6421 76.3195 14.9924C76.3195 17.3421 74.8548 19.0033 72.7171 19.0033ZM28.834 8.2505C26.7266 8.2505 25.162 9.18403 24.2446 10.775V4.72498H21.3881V14.6475C21.3881 18.8649 23.8349 21.735 28.049 21.735C31.5158 21.735 34.7449 19.2105 34.7449 14.9242C34.7402 11.2934 32.6065 8.25118 28.834 8.25118V8.2505ZM28.0186 18.8649C25.708 18.8649 24.3824 17.1713 24.3824 14.9924C24.3824 12.7804 25.673 10.9829 27.9848 10.9829C30.1948 10.9829 31.588 12.7804 31.588 14.9924C31.5866 17.1713 30.3291 18.8649 28.0186 18.8649ZM42.9388 8.25118C39.472 8.25118 36.2428 10.7757 36.2428 15.0619C36.2428 18.6927 38.3832 21.7282 42.1578 21.7282C44.2645 21.7282 45.8278 20.7947 46.7451 19.2037V21.5966H49.6017V15.3394C49.6004 11.1206 47.1528 8.25118 42.9388 8.25118ZM42.9388 19.0039C40.662 19.0039 39.4099 17.2739 39.4099 15.0619C39.4099 12.8844 40.6688 11.1206 42.9793 11.1206C45.2898 11.1206 46.6155 12.8149 46.6155 14.9924C46.6087 17.2057 45.2493 19.0039 42.9388 19.0039ZM61.5978 4.72498V10.7757C60.6805 9.18403 59.1179 8.25118 57.0105 8.25118C53.2366 8.25118 51.0955 11.2934 51.0955 14.9168C51.0955 19.2739 54.1202 21.7276 57.6491 21.7276C61.8638 21.7276 64.4463 18.8588 64.4463 14.64V4.727L61.5978 4.72498ZM57.8252 18.8649C55.5147 18.8649 54.2565 17.1713 54.2565 14.9924C54.2565 12.7804 55.6511 10.9829 57.859 10.9829C60.1715 10.9829 61.4621 12.746 61.4621 14.9924C61.4588 17.1713 60.1357 18.8649 57.8252 18.8649Z" fill="#ADADAD"/>
</g>
<defs>
<clipPath id="clip0_210_2334">
<rect width="94.5" height="27" fill="white"/>
</clipPath>
</defs>
</svg>
