<svg width="144" height="27" viewBox="0 0 144 27" fill="none" xmlns="http://www.w3.org/2000/svg">
<g clip-path="url(#clip0_210_2347)">
<path d="M10.431 5.94209L16.4794 10.0314C17.6658 10.8512 19.0751 11.5288 21.2251 11.5288C24.5666 11.5288 27.598 9.33012 27.598 9.33012L13.7966 0C13.7966 0 12.2906 1.62057 7.56416 4.50157C2.60049 7.52475 0 8.40611 0 8.40611L17.8692 20.4845L17.0751 20.9963L11.1186 16.9686C9.93222 16.1488 8.523 15.4712 6.37287 15.4712C3.03147 15.4712 0 17.6699 0 17.6699L13.8014 27C13.8014 27 15.3075 25.3795 20.0339 22.4984C24.9976 19.4753 27.598 18.5939 27.598 18.5939L9.63684 6.45385L10.431 5.94209Z" fill="#ADADAD"/>
<path d="M45.7967 11.5478C43.1769 11.2161 40.8427 11.1498 40.7797 10.2163C40.7023 9.04107 42.6151 8.91792 43.2398 8.91792C44.281 8.91792 45.971 9.15006 46.3633 10.6854H53.0558C53.0558 7.73328 50.1938 5.39721 43.2592 5.37825C35.5449 5.3593 34.2422 8.69046 34.2422 10.5812C34.2422 14.0876 37.0219 15.1206 43.0413 15.7414C45.2737 15.9688 46.6974 15.9641 46.6974 17.054C46.6974 18.1722 44.9977 18.286 44.2859 18.286C43.6321 18.286 41.7774 18.2906 41.1721 16.4474H33.8984C34.2132 19.8923 36.436 21.9157 44.2762 21.8919C51.6611 21.873 53.5982 18.9398 53.5982 16.6985C53.5982 14.5377 52.0825 12.3344 45.7967 11.5478Z" fill="#ADADAD"/>
<path d="M75.4964 9.82302H84.3438L75.1865 18.1912V21.5271H93.7819V17.5325H84.5279L93.8116 9.1833V5.84265H75.4964V9.82302Z" fill="#ADADAD"/>
<path d="M144 5.84265H137.951V21.5271H144V5.84265Z" fill="#ADADAD"/>
<path d="M128.779 5.84265L122.344 11.2446V5.84265H116.291V21.5271H122.344V15.9688L128.32 21.5271H136.465L127.608 13.4858L136.751 5.84265H128.779Z" fill="#ADADAD"/>
<path d="M67.6899 12.4197C67.6899 12.6519 67.6899 12.9646 67.6899 14.8932C67.6899 16.8218 66.9732 18.1011 64.2952 18.1011C61.6173 18.1011 60.9006 16.8218 60.9006 14.8932C60.9006 12.9646 60.9006 12.6566 60.9006 12.4197C60.9006 12.1875 60.9006 5.84265 60.9006 5.84265H55.0991C55.0991 5.84265 55.0991 10.8038 55.0991 11.5573C55.0991 12.3107 55.1137 14.8411 55.1282 16.2578C55.1475 18.2764 55.656 22.1289 64.2905 22.1289C72.9248 22.1289 73.4333 18.2764 73.4526 16.2578C73.4671 14.8411 73.4817 12.3107 73.4817 11.5573C73.4817 10.8038 73.4817 5.84265 73.4817 5.84265H67.6802C67.6899 5.84265 67.6899 12.1875 67.6899 12.4197Z" fill="#ADADAD"/>
<path d="M108.407 12.4197C108.407 12.6519 108.407 12.9646 108.407 14.8932C108.407 16.8218 107.691 18.1011 105.012 18.1011C102.335 18.1011 101.617 16.8218 101.617 14.8932C101.617 12.9646 101.617 12.6566 101.617 12.4197C101.617 12.1875 101.617 5.84265 101.617 5.84265H95.8159C95.8159 5.84265 95.8159 10.8038 95.8159 11.5573C95.8159 12.3107 95.8303 14.8411 95.8447 16.2578C95.8645 18.2764 96.373 22.1289 105.008 22.1289C113.641 22.1289 114.15 18.2764 114.17 16.2578C114.184 14.8411 114.198 12.3107 114.198 11.5573C114.198 10.8038 114.198 5.84265 114.198 5.84265H108.397C108.407 5.84265 108.407 12.1875 108.407 12.4197Z" fill="#ADADAD"/>
</g>
<defs>
<clipPath id="clip0_210_2347">
<rect width="144" height="27" fill="white"/>
</clipPath>
</defs>
</svg>
