<svg width="48" height="48" viewBox="0 0 48 48" fill="none" xmlns="http://www.w3.org/2000/svg">
<g clip-path="url(#clip0_210_2372)">
<path d="M24.0016 2.73659C18.1319 2.73659 12.8162 5.11744 8.96761 8.96901C5.11751 12.8118 2.73813 18.1304 2.73813 24.003C2.73813 29.8712 5.11751 35.1862 8.96761 39.0304C12.8162 42.8769 18.1319 45.2621 24.0016 45.2621C29.8728 45.2621 35.1914 42.8769 39.0342 39.0304C42.8828 35.1862 45.2571 29.8712 45.2571 24.003C45.2571 18.1304 42.8828 12.8118 39.0342 8.96901C35.1914 5.11744 29.8728 2.73659 24.0016 2.73659ZM24.0016 0.160088C37.1663 0.160088 47.8401 10.8354 47.8401 24.003C47.8401 37.1662 37.1663 47.8401 24.0016 47.8401C10.8384 47.8401 0.160156 37.1662 0.160156 24.003C0.160156 10.8354 10.8384 0.160088 24.0016 0.160088Z" fill="#ADADAD"/>
<path d="M12.7264 23.8087C12.7264 22.4194 11.8046 21.6301 10.4995 21.6301H9.70072V25.9888H10.4768C11.6903 25.9888 12.7264 25.3293 12.7264 23.8087ZM26.9346 25.3769L21.0502 30.0104L15.6723 25.7763C14.8962 27.6405 13.021 28.9354 10.8615 28.9354H6.25879V18.6821H10.8615C13.2746 18.6821 15.0135 20.2166 15.6708 21.8514L21.0502 17.6218L23.0427 19.1899L18.1125 23.0649L19.06 23.8065L23.9888 19.9337L25.9841 21.4975L21.0546 25.3769L22.0007 26.12L26.9346 22.2398V18.6821H30.5114V25.9426H34.0793V28.9478H26.9346V25.3769ZM38.6102 25.9441H42.1767V28.9478H35.0298V18.6821H38.6102V25.9441Z" fill="#ADADAD"/>
</g>
<defs>
<clipPath id="clip0_210_2372">
<rect width="48" height="48" fill="white"/>
</clipPath>
</defs>
</svg>
