<svg width="130" height="27" viewBox="0 0 130 27" fill="none" xmlns="http://www.w3.org/2000/svg">
<g clip-path="url(#clip0_210_2356)">
<path d="M14.0499 3.51877C14.2848 3.75304 14.2122 3.96185 14.2122 3.96185C13.6234 6.90297 11.944 11.5355 11.944 11.5355C11.8027 11.9583 11.965 12.041 11.965 12.041C12.2897 12.2816 12.8391 11.6972 12.8391 11.6972C23.1158 2.41808 30.347 0.10083 30.347 0.10083C31.7284 0.9055 34.166 3.36344 34.166 3.36344C22.2029 5.91941 15.1538 11.0734 15.1538 11.0734C14.6254 11.4553 14.9513 11.9786 14.9513 11.9786C18.2419 18.5815 19.7246 20.1711 19.7246 20.1711C21.085 21.9823 21.6325 22.0224 22.4671 22.0434C23.2991 22.0637 24.1312 22.0039 24.1312 22.0039L19.4999 25.2423C18.9721 25.6657 18.3642 25.0628 18.3642 25.0628C15.9253 22.4451 11.823 14.2539 11.823 14.2539C11.5385 13.7108 11.3863 13.8101 11.3863 13.8101C11.1209 13.7598 10.9089 14.194 10.9089 14.194C6.48192 22.4852 3.21104 25.7051 3.21104 25.7051L0 22.3642C7.35407 17.1313 9.77063 4.40938 9.77063 4.40938C9.77063 4.04715 9.3492 4.07707 9.3492 4.07707C8.39047 4.10763 6.25656 4.42593 6.25656 4.42593C9.66941 1.51091 11.3004 0.544544 11.3004 0.544544C12.2591 1.4307 14.0499 3.51877 14.0499 3.51877ZM40.1075 12.2606C40.1075 12.2606 40.1979 8.4862 36.1459 9.42265C36.1459 9.42265 34.6116 9.76451 32.5509 11.1746C29.464 13.283 25.8793 18.3186 27.4626 22.9181C27.4626 22.9181 30.0835 30.134 37.0301 20.4117C37.0301 20.4117 36.1153 25.122 39.5288 25.4543L43.3675 22.7481C43.3675 22.7481 40.0362 23.2905 41.0223 20.2322C41.0223 20.2322 42.1796 15.4309 45.7134 9.84727L41.8129 9.87591C41.8129 9.87464 41.417 9.96631 40.1075 12.2606ZM32.5624 22.6252C30.0434 21.8409 32.2976 16.5463 32.2976 16.5463C35.6092 9.58308 38.9603 10.6704 38.9603 10.6704C40.3615 11.2955 39.5288 13.3671 39.5288 13.3671C38.5942 15.6818 37.293 19.3244 37.293 19.3244C34.9783 23.591 32.5624 22.6252 32.5624 22.6252ZM56.0729 9.33162C56.0729 9.33162 50.558 11.7469 49.8564 12.0805C49.8564 12.0805 51.32 12.0493 51.7147 12.0493C51.7147 12.0493 52.1877 12.034 52.1412 12.4726C52.1412 12.4726 51.8159 17.7558 47.6735 22.4654L50.2212 25.3333C50.2212 25.3333 53.0547 21.5201 55.1581 15.7321C55.1581 15.7321 56.5905 12.26 59.0872 11.8074C59.0872 11.8074 61.6477 11.1943 61.1912 14.795C61.1912 14.795 60.8354 19.6058 58.4793 25.453L66.2376 22.0026L64.1463 22.0109C64.1463 22.0109 63.7001 22.0421 63.9025 21.5277C63.9025 21.5277 66.461 11.9875 64.5729 9.99369C64.5729 9.99369 63.2927 8.03167 59.7888 10.1758C59.7888 10.1758 57.0768 12.0175 55.463 14.131C55.4643 14.1323 56.2862 10.0847 56.0729 9.33162ZM74.9324 17.8456C74.9324 17.8456 83.8289 17.5133 85.6885 13.0755C85.6885 13.0755 87.3322 9.06106 81.6963 8.99994C81.6963 8.99994 73.6833 8.69692 70.972 16.4584C70.972 16.4584 68.5345 24.1779 75.6033 25.2118C75.6033 25.2118 79.3816 25.765 82.6722 22.3445C82.6722 22.3445 79.4115 24.4262 76.9434 23.4617C76.9434 23.4617 73.9272 22.7659 74.9324 17.8456ZM74.9947 17.575C74.9947 17.575 76.7002 9.8861 80.8751 9.39337C80.8751 9.39337 83.4037 9.09098 82.1852 12.5032C82.1852 12.5026 80.3142 17.2122 74.9947 17.575ZM99.6422 0.424226C99.6422 0.424226 93.732 2.68927 93.3042 2.87007C93.3042 2.87007 94.3508 2.88025 94.8581 2.87007C94.8581 2.87007 95.3859 2.88025 95.3254 3.46402C95.3254 3.46402 94.0057 16.0943 87.089 22.2547L89.7398 25.1513C89.7398 25.1513 92.0863 22.3445 92.8477 20.986C92.8477 20.986 92.7879 26.0858 98.5759 24.9705C98.5759 24.9705 104.668 23.6521 106.537 15.9644C108.098 9.54233 103.785 8.96875 103.785 8.96875C103.785 8.96875 100.463 8.21374 96.9596 12.1995C96.9602 12.1995 99.2463 5.31591 99.6422 0.424226ZM93.3755 20.2513C93.3755 20.2513 95.5495 16.4871 96.5852 13.6484C96.5852 13.6484 98.2703 10.0548 101.5 10.51C101.5 10.51 104.792 10.8518 101.42 18.74C101.42 18.74 98.3633 25.122 94.7671 23.7017C94.7677 23.7017 92.8694 23.0473 93.3755 20.2513ZM121.976 8.87899C121.976 8.87899 114.602 7.91262 111.799 16.2751C111.799 16.2751 109.605 24.0347 116.675 25.0322C116.675 25.0322 124.11 26.0864 126.789 18.3288C126.788 18.3281 129.683 9.87464 121.976 8.87899ZM122.92 17.2421C120.695 25.968 116.948 24.6394 116.948 24.6394C113.443 23.8539 116.338 15.7327 116.338 15.7327C118.777 8.427 121.883 9.3017 121.883 9.3017C125.265 9.7244 122.92 17.2421 122.92 17.2421ZM15.374 35.7934H15.989V32.8911H18.2241V32.3627H15.989V30.1639H18.3311V29.6355H15.374V35.7934ZM21.1882 35.7934H24.34V35.2644H21.8018V32.8905H24.1083V32.3621H21.8018V30.1633H24.2318V29.6349H21.1882V35.7934ZM27.4205 35.7934H30.5736V35.2644H28.0336V32.8905H30.34V32.3621H28.0336V30.1633H30.4654V29.6349H27.4205V35.7934ZM33.6001 35.7934H36.708V35.2644H34.215V29.6355H33.6001V35.7934ZM43.1816 35.7934H43.7953V33.1821L46.1005 29.6355H45.4339L43.4834 32.6435L41.5876 29.6355H40.8739L43.1816 33.1821V35.7934ZM49.0836 32.7142C49.0836 34.0211 49.7425 35.3694 51.2022 35.3694C52.6632 35.3694 53.3228 34.0211 53.3228 32.7142C53.3228 31.4085 52.6632 30.0589 51.2022 30.0589C49.7425 30.0595 49.0836 31.4085 49.0836 32.7142ZM51.2022 29.5292C53.0726 29.5292 53.9543 31.0469 53.9371 32.7142C53.9186 34.6023 52.9936 35.8991 51.2022 35.8991C49.4134 35.8991 48.4871 34.6023 48.4693 32.7142C48.4521 31.0475 49.3338 29.5292 51.2022 29.5292ZM61.4242 29.6355H60.8093V33.6404C60.8093 34.6463 60.249 35.3688 59.1719 35.3688C58.0935 35.3688 57.5345 34.6456 57.5345 33.6404V29.6355H56.9196V33.6404C56.9196 35.4573 58.2628 35.8991 59.1719 35.8991C60.0797 35.8991 61.4242 35.4573 61.4242 33.6404V29.6355ZM65.3158 32.3621H65.9651C66.687 32.3621 67.514 32.0877 67.514 31.2315C67.514 30.2257 66.794 30.1639 65.946 30.1639H65.3158V32.3621ZM64.7008 29.6355H66.3044C67.4083 29.6355 68.1283 30.1022 68.1283 31.2315C68.1283 32.026 67.514 32.5569 66.7488 32.6524V32.6709C67.2472 32.7333 67.3536 32.9968 67.5496 33.4125L68.6096 35.7941H67.9335L67.034 33.7117C66.6781 32.9172 66.4107 32.8911 65.8219 32.8911H65.3158V35.7934H64.7008V29.6355ZM76.2317 35.2644H76.8727C77.6997 35.2644 78.6349 35.0441 78.6349 34.0644C78.6349 32.9688 77.6819 32.8555 76.7734 32.8555H76.2317V35.2644ZM75.6167 29.6355H77.0962C78.1097 29.6355 79.0639 29.9717 79.0639 31.1519C79.0639 31.9375 78.6979 32.4048 77.9314 32.5569V32.5741C78.7144 32.7142 79.2498 33.226 79.2498 34.0377C79.2498 35.3783 78.1453 35.7934 76.8543 35.7934H75.6161L75.6167 29.6355ZM76.2495 32.3265H76.9358C77.5851 32.3265 78.4483 32.1571 78.4483 31.1812C78.4483 30.2893 77.6201 30.1645 77.0962 30.1645H76.2495V32.3265ZM82.7021 35.7934H85.8552V35.2644H83.3177V32.8905H85.6229V32.3621H83.3177V30.1633H85.7489V29.6349H82.7021V35.7934ZM91.1359 30.2167L89.7806 33.615H92.4804L91.1359 30.2167ZM90.8316 29.6355H91.5261L93.993 35.7928H93.3526L92.6841 34.1427H89.5495L88.8817 35.7928H88.2858L90.8316 29.6355ZM101.115 29.6355H100.5V33.6404C100.5 34.6463 99.9402 35.3688 98.8624 35.3688C97.7846 35.3688 97.2238 34.6456 97.2238 33.6404V29.6355H96.6088V33.6404C96.6088 35.4573 97.9533 35.8991 98.8617 35.8991C99.7695 35.8991 101.115 35.4573 101.115 33.6404V29.6355H101.115ZM105.533 35.7934H106.146V30.1639H107.98V29.6355H103.698V30.1639H105.533V35.7934ZM111.719 35.7934H112.334V33.1821L114.639 29.6355H113.972L112.022 32.6435L110.126 29.6355H109.413L111.719 33.1821V35.7934Z" fill="#ADADAD"/>
</g>
<defs>
<clipPath id="clip0_210_2356">
<rect width="129.6" height="27" fill="white"/>
</clipPath>
</defs>
</svg>
