<svg width="72" height="27" viewBox="0 0 72 27" fill="none" xmlns="http://www.w3.org/2000/svg">
<g clip-path="url(#clip0_210_2336)">
<path d="M67.7483 13.4012C67.7483 12.9833 67.6659 12.5694 67.506 12.1833C67.346 11.7971 67.1116 11.4463 66.8161 11.1507C66.5205 10.8552 66.1697 10.6207 65.7835 10.4608C65.3974 10.3008 64.9835 10.2185 64.5655 10.2185C64.1476 10.2185 63.7337 10.3008 63.3476 10.4608C62.9614 10.6207 62.6106 10.8552 62.315 11.1507C62.0195 11.4463 61.785 11.7971 61.6251 12.1833C61.4651 12.5694 61.3828 12.9833 61.3828 13.4012V19.8578H57.8203V13.4012C57.8203 11.6123 58.531 9.89661 59.7959 8.63164C61.0609 7.36666 62.7766 6.65601 64.5655 6.65601C66.3545 6.65601 68.0702 7.36666 69.3351 8.63164C70.6001 9.89661 71.3108 11.6123 71.3108 13.4012V19.8578H67.8394C67.7483 19.8578 67.7483 14.2596 67.7483 13.4012Z" fill="#ADADAD"/>
<path d="M42.7881 13.4012C42.7881 12.0672 43.1837 10.763 43.9249 9.65379C44.666 8.54454 45.7195 7.67999 46.952 7.16946C48.1846 6.65893 49.5408 6.52535 50.8492 6.78562C52.1577 7.04588 53.3596 7.6883 54.3029 8.63164C55.2462 9.57498 55.8887 10.7769 56.1489 12.0853C56.4092 13.3938 56.2756 14.75 55.7651 15.9825C55.2546 17.215 54.39 18.2685 53.2808 19.0097C52.1715 19.7509 50.8674 20.1465 49.5333 20.1465C47.7462 20.1405 46.034 19.4279 44.7704 18.1642C43.5067 16.9005 42.7941 15.1883 42.7881 13.4012ZM49.5333 16.5764C50.1821 16.5824 50.818 16.3955 51.3604 16.0394C51.9027 15.6834 52.3271 15.1742 52.5795 14.5765C52.832 13.9789 52.9012 13.3197 52.7783 12.6826C52.6554 12.0456 52.3461 11.4594 51.8894 10.9985C51.4328 10.5376 50.8495 10.2227 50.2136 10.0939C49.5778 9.96512 48.918 10.0282 48.318 10.275C47.718 10.5219 47.2049 10.9415 46.8438 11.4805C46.4827 12.0195 46.2899 12.6537 46.2898 13.3025C46.2978 14.1683 46.6452 14.9964 47.2575 15.6087C47.8697 16.221 48.6979 16.5684 49.5637 16.5764H49.5333Z" fill="#ADADAD"/>
<path d="M34.5007 10.9858C34.0145 10.606 34.1133 10.0287 34.9792 9.8312C36.5316 9.55752 38.1308 9.79474 39.5368 10.5072L41.2763 8.22845C39.9276 7.25768 38.312 6.72711 36.6503 6.70926C36.6503 6.70926 32.7612 6.16994 31.0977 9.15516C30.7165 9.94628 30.6431 10.8508 30.8915 11.6931C31.14 12.5353 31.6927 13.2552 32.4422 13.7127C34.1361 14.7458 37.0985 15.1332 37.9341 15.6117C38.7696 16.0903 38.4202 16.8651 37.3568 17.0626C35.5681 17.2305 33.7762 16.7772 32.2827 15.7789L30.5508 18.0576C31.9875 19.1448 33.6801 19.8433 35.4654 20.0858C35.4654 20.0858 39.1266 20.7618 41.1472 18.1564C41.7197 17.4271 41.9803 16.5009 41.8721 15.58C41.764 14.6592 41.2958 13.8186 40.5699 13.2418C40.3666 13.0775 40.1384 12.9467 39.8938 12.8544C38.0632 11.9809 35.3666 11.5707 34.5007 10.9858Z" fill="#ADADAD"/>
<path d="M17.8275 22.5544C18.8425 23.2383 20.007 23.6682 21.2229 23.8078C25.0741 23.9065 25.3703 19.8579 25.3703 18.8932C24.493 19.6774 23.3641 20.122 22.1876 20.1465C20.4293 20.153 18.7385 19.4704 17.4776 18.245C16.2167 17.0196 15.4861 15.3489 15.4424 13.5912V6.84595H19.0049V13.5C19.0049 14.3441 19.3402 15.1537 19.9371 15.7505C20.534 16.3474 21.3435 16.6827 22.1876 16.6827C23.0317 16.6827 23.8413 16.3474 24.4381 15.7505C25.035 15.1537 25.3703 14.3441 25.3703 13.5V6.84595H28.9328V13.5C28.9328 19.3793 29.2215 25.3573 23.5321 26.8006C22.2229 27.0805 20.8673 27.0612 19.5666 26.7443C18.2658 26.4273 17.0534 25.8208 16.0197 24.9699L17.8275 22.5544Z" fill="#ADADAD"/>
<path d="M13.6272 0.00195312H10.0571V6.55728H6.74523C5.41115 6.55728 4.10703 6.95288 2.99778 7.69406C1.88853 8.43523 1.02398 9.48869 0.513454 10.7212C0.00292385 11.9537 -0.130656 13.31 0.12961 14.6184C0.389876 15.9269 1.0323 17.1288 1.97563 18.0721C2.91897 19.0154 4.12086 19.6579 5.4293 19.9181C6.73775 20.1784 8.09399 20.0448 9.32652 19.5343C10.559 19.0237 11.6125 18.1592 12.3537 17.05C13.0949 15.9407 13.4905 14.6366 13.4905 13.3025V6.55728L13.6272 0.00195312ZM10.0571 13.4013C10.0466 14.0354 9.84948 14.6524 9.49042 15.1753C9.13137 15.6981 8.62626 16.1036 8.03815 16.3411C7.45004 16.5787 6.805 16.6377 6.18356 16.5108C5.56212 16.384 4.99181 16.0769 4.54384 15.6279C4.09587 15.1788 3.79009 14.6078 3.66468 13.9861C3.53926 13.3644 3.59977 12.7195 3.83865 12.1319C4.07753 11.5443 4.48419 11.0402 5.00786 10.6823C5.53154 10.3245 6.14902 10.1288 6.78321 10.1198H9.96592L10.0571 13.4013Z" fill="#ADADAD"/>
</g>
<defs>
<clipPath id="clip0_210_2336">
<rect width="71.311" height="27" fill="white"/>
</clipPath>
</defs>
</svg>
