<svg width="121" height="27" viewBox="0 0 121 27" fill="none" xmlns="http://www.w3.org/2000/svg">
<g clip-path="url(#clip0_210_2382)">
<path d="M8.19829 17.5252C8.36325 17.9397 8.31094 18.4708 8.23047 18.7926C8.08965 19.364 7.70339 19.9474 6.56071 19.9474C5.49045 19.9474 4.83864 19.3278 4.83864 18.3943V16.7326H0.239746V18.0523C0.239746 21.8747 3.24532 23.0294 6.46817 23.0294C9.56629 23.0294 12.1172 21.9753 12.5236 19.1145C12.7328 17.6339 12.5799 16.6642 12.5075 16.3061C11.7832 12.7171 5.28123 11.6469 4.79438 9.63911C4.72679 9.34298 4.72115 9.03598 4.77829 8.73784C4.89899 8.18662 5.27318 7.58711 6.34344 7.58711C7.34932 7.58711 7.93273 8.20674 7.93273 9.14019V10.2024H12.2097V8.99535C12.2097 5.26151 8.85814 4.6781 6.43598 4.6781C3.38615 4.6781 0.895581 5.68801 0.440923 8.48436C0.320217 9.24883 0.300099 9.93283 0.481158 10.7939C1.22551 14.2943 7.31311 15.3083 8.19829 17.5252Z" fill="#ADADAD"/>
<path d="M18.5873 5.22521L15.4087 22.3614H20.0398L22.3855 6.81049H22.4821L24.7634 22.3614H29.3703L26.2119 5.22119L18.5873 5.22521ZM44.4787 5.22521L42.3663 18.3258H42.2657L40.1574 5.22521H33.1685L32.7903 22.3614H37.0794L37.184 6.95533H37.2806L40.1413 22.3614H44.4908L47.3555 6.95936H47.448L47.5567 22.3614H51.8417L51.4635 5.22119L44.4787 5.22521Z" fill="#ADADAD"/>
<path d="M63.9122 17.493C64.0771 17.9074 64.0248 18.4385 63.9443 18.7604C63.8035 19.3318 63.4173 19.9152 62.2746 19.9152C61.2043 19.9152 60.5525 19.2955 60.5525 18.3621V16.7004H55.9536V18.0201C55.9536 21.8424 58.9592 22.9972 62.182 22.9972C65.2802 22.9972 67.8311 21.943 68.2374 19.0823C68.4467 17.6016 68.2938 16.632 68.2214 16.2739C67.4971 12.6849 60.9951 11.6146 60.5082 9.60688C60.4407 9.31075 60.435 9.00376 60.4922 8.70561C60.6129 8.15439 60.987 7.55489 62.0573 7.55489C63.0632 7.55489 63.6466 8.17451 63.6466 9.10797V10.1702H67.9236V8.96312C67.9236 5.22929 64.572 4.64587 62.1498 4.64587C59.1 4.64587 56.6094 5.65578 56.1548 8.45213C56.0341 9.2166 56.014 9.9006 56.195 10.7616C56.9394 14.2621 63.027 15.276 63.9122 17.493Z" fill="#ADADAD"/>
<path d="M78.296 19.7945C79.487 19.7945 79.8531 18.9737 79.9376 18.5552C79.9738 18.3701 79.9779 18.1207 79.9779 17.8994V5.22527H84.3152V17.5091C84.316 17.8849 84.3028 18.2607 84.275 18.6357C83.9732 21.8344 81.4465 22.8725 78.296 22.8725C75.1416 22.8725 72.6148 21.8344 72.313 18.6357C72.301 18.4667 72.2688 17.8229 72.2728 17.5091V5.22125H76.6102V17.8954C76.6061 18.1207 76.6142 18.3701 76.6504 18.5552C76.7309 18.9737 77.101 19.7945 78.296 19.7945ZM99.2506 5.22527L99.4839 18.6759H99.3914L95.4483 5.22527H89.0912V22.1804H93.3038L93.0704 8.26304H93.163L97.3917 22.1804H103.495V5.22527H99.2506ZM114.037 19.6174C115.276 19.6174 115.711 18.8328 115.787 18.3701C115.823 18.181 115.828 17.9396 115.828 17.7264V15.2318H114.069V12.7372H120.141V17.3321C120.141 17.654 120.133 17.8873 120.08 18.4587C119.799 21.5809 117.091 22.6954 114.053 22.6954C111.015 22.6954 108.312 21.5809 108.026 18.4587C107.978 17.8873 107.966 17.654 107.966 17.3321V10.1219C107.966 9.81612 108.006 9.27697 108.038 8.99532C108.42 5.78857 111.015 4.75854 114.053 4.75854C117.091 4.75854 119.754 5.78052 120.068 8.9913C120.125 9.5385 120.109 10.1179 120.109 10.1179V10.6932H115.787V9.73163C115.787 9.73163 115.787 9.32927 115.735 9.07981C115.654 8.7016 115.333 7.83252 114.021 7.83252C112.774 7.83252 112.407 8.65734 112.315 9.07981C112.263 9.30513 112.243 9.61092 112.243 9.88854V17.7224C112.243 17.9396 112.251 18.181 112.283 18.3742C112.363 18.8328 112.798 19.6174 114.037 19.6174Z" fill="#ADADAD"/>
</g>
<defs>
<clipPath id="clip0_210_2382">
<rect width="120.15" height="27" fill="white"/>
</clipPath>
</defs>
</svg>
