<svg width="128" height="27" viewBox="0 0 128 27" fill="none" xmlns="http://www.w3.org/2000/svg">
<path d="M78.261 13.4867C78.261 20.1782 83.6837 25.6028 90.3739 25.6028C97.0631 25.6028 102.486 20.1782 102.486 13.4867C102.486 6.79433 97.0631 1.36985 90.3739 1.36985C83.6837 1.36985 78.261 6.79433 78.261 13.4867ZM82.4662 13.4867C82.4662 9.11807 86.0066 5.57732 90.3739 5.57732C94.7409 5.57732 98.2815 9.11807 98.2815 13.4867C98.2815 17.8555 94.7409 21.397 90.3739 21.397C86.0066 21.397 82.4662 17.8555 82.4662 13.4867ZM24.9144 13.4867C24.9144 20.1782 30.3371 25.6028 37.0273 25.6028C43.7165 25.6028 49.1391 20.1782 49.1391 13.4867C49.1391 6.79433 43.7165 1.36985 37.0273 1.36985C30.3371 1.36985 24.9144 6.79433 24.9144 13.4867ZM29.1195 13.4867C29.1195 9.11807 32.66 5.57732 37.0273 5.57732C41.3943 5.57732 44.9348 9.11807 44.9348 13.4867C44.9348 17.8555 41.3943 21.397 37.0273 21.397C32.66 21.397 29.1195 17.8555 29.1195 13.4867ZM68.3792 1.62309V16.3615L58.1688 1.62309H54.8158V25.24H59.0219V10.4298L69.2813 25.24H72.5843V1.62309H68.3792ZM108.163 1.69403V25.3111H112.368V14.801L121.129 25.3111H126.593L119.417 16.7014C122.518 15.7122 124.764 12.8086 124.764 9.37917C124.764 5.14286 121.335 1.70622 117.103 1.69496V1.69403H108.163ZM112.368 5.9015H117.051C118.97 5.9015 120.527 7.45858 120.527 9.37917C120.527 11.2998 118.969 12.8576 117.049 12.8576H112.368V5.9015ZM15.0325 1.69403V11.2674H5.67512V1.69403H1.46924V25.3111H5.67512V15.4741H15.0325V25.3111H19.2376V1.69403H15.0325Z" fill="#ADADAD"/>
</svg>
