<svg width="142" height="27" viewBox="0 0 142 27" fill="none" xmlns="http://www.w3.org/2000/svg">
<g clip-path="url(#clip0_210_2365)">
<mask id="mask0_210_2365" style="mask-type:luminance" maskUnits="userSpaceOnUse" x="0" y="0" width="142" height="27">
<path d="M141.429 0.384399H0V26.0987H141.429V0.384399Z" fill="white"/>
</mask>
<g mask="url(#mask0_210_2365)">
<path d="M25.6602 1.58745L24.8862 2.76039C30.0956 4.9258 32.1794 8.83557 32.1794 13.0461C32.1794 15.1514 31.6138 17.046 30.5123 17.046C26.9104 17.046 19.1706 17.046 16.8786 17.046C15.033 17.046 14.4674 16.3844 15.3009 14.7003C16.7892 11.7228 21.2545 6.03858 24.0229 2.61001C24.4396 2.09874 24.7671 1.31678 23.3085 0.925799C21.8201 0.534821 19.4386 0.35437 17.4144 0.35437C7.14437 0.384446 0 5.97843 0 13.2266C0 19.8732 6.19178 26.0988 17.3847 26.0988C22.3262 26.0988 28.3989 24.6852 31.8222 20.7453H28.8751C25.5113 23.813 21.1652 24.5047 17.4144 24.5047C8.39462 24.5047 2.67913 19.7529 2.67913 13.2266C2.67913 7.18144 9.13883 1.76791 17.2953 1.76791C18.2777 1.76791 18.6051 1.97843 17.5632 3.27167C15.4795 5.8882 11.7584 11.0912 10.0021 14.1288C8.1267 17.377 10.0319 20.0235 14.259 20.0235C17.2358 20.0235 27.9225 20.0235 31.3458 20.0235C32.3878 20.0235 33.0129 19.422 33.6083 18.3093C34.1144 17.437 34.8585 15.6325 34.8585 13.2266C34.8585 8.3243 31.2268 3.81302 25.6602 1.58745Z" fill="#ADADAD"/>
<path d="M137.083 12.2641C134.612 12.2641 128.956 12.2641 125.503 12.2641C125.89 10.7603 127.021 9.73774 129.194 9.73774C131.754 9.73774 140.268 9.73774 140.268 9.73774V7.21143C140.268 7.21143 134.492 7.21143 128.48 7.21143C121.752 7.21143 120.174 12.0235 120.174 14.7603C120.174 14.7603 132.082 14.7603 134.523 14.7603C136.488 14.7603 136.488 17.437 134.582 17.437C132.618 17.437 118.745 17.437 118.745 17.437V7.21143H113.983V17.437C113.983 17.437 108.684 17.437 106.064 17.437C103.951 17.437 103.058 16.4145 103.058 14.8204C103.058 12.8956 103.058 7.21143 103.058 7.21143H95.4071L88.5606 11.5723L82.6665 7.21143C75.9984 7.21143 76.0281 7.21143 65.6985 7.21143C60.7868 7.21143 57.304 10.0986 56.8871 13.7377H60.0724C58.7923 14.5799 57.81 15.9633 57.2444 17.4671C52.3625 17.4671 48.314 17.4671 47.2125 17.4671C45.3074 17.4671 44.4441 16.4746 44.4441 14.61C44.4441 13.3768 44.4441 7.21143 44.4441 7.21143H39.6514C39.6514 7.21143 39.6514 10.5798 39.6514 13.4972C39.6514 17.4972 41.7948 19.9934 46.6768 19.9934C50.7848 19.9934 80.1064 19.9934 80.1064 19.9934L86.9828 15.6325L92.8769 20.0235H99.932L90.7336 13.2265L98.2352 8.50466C98.2352 10.1588 98.2352 13.4972 98.2352 15.6927C98.2352 17.9182 101.093 20.0535 103.683 20.0535C107.047 20.0535 131.486 20.0535 137.083 20.0535C142.888 20.0235 142.857 12.2641 137.083 12.2641ZM79.2431 17.4972C79.2431 17.4972 71.1461 17.4972 63.0195 17.4972C63.1981 16.1137 63.8827 14.7603 66.1154 14.7603C70.1043 14.7603 76.177 14.7603 76.177 14.7603V12.2641H62.7812C63.0195 11.2415 64.0613 9.76781 66.4725 9.76781C70.4615 9.76781 77.0997 9.76781 77.0997 9.76781V8.38436L84.7502 14.0084L79.2431 17.4972Z" fill="#ADADAD"/>
</g>
</g>
<defs>
<clipPath id="clip0_210_2365">
<rect width="141.429" height="27" fill="white"/>
</clipPath>
</defs>
</svg>
