<svg width="48" height="48" viewBox="0 0 48 48" fill="none" xmlns="http://www.w3.org/2000/svg">
<g clip-path="url(#clip0_210_2358)">
<path d="M22.674 7.13679H25.4529C25.7687 7.13679 26.0213 6.88416 26.0213 6.56837C26.0213 6.25258 25.7687 5.99995 25.4529 5.99995H22.674V7.13679ZM22.674 9.78942H25.5161C25.895 9.78942 26.1476 9.53679 26.1476 9.15784C26.1476 8.77889 25.895 8.52626 25.5161 8.52626H22.674V9.78942ZM27.1582 7.76837C27.5371 8.14732 27.7897 8.65258 27.7897 9.221C27.7897 10.3578 26.9055 11.2421 25.7687 11.2421H21.1582V4.61047H25.7055C26.7792 4.61047 27.6634 5.49468 27.6634 6.56837C27.6003 7.01047 27.4108 7.45258 27.1582 7.76837ZM28.2319 19.1368H26.5266L26.0213 17.9999H22.295L21.7897 19.1368H20.0845L23.3687 12.5052H24.8845L28.2319 19.1368ZM24.1266 14.2105L22.9897 16.6105H25.2634L24.1266 14.2105ZM26.4003 20.5894H28.295L24.9476 24.8842V27.221H23.3687V24.8842L20.0213 20.5894H21.9161L24.1897 23.621L26.4003 20.5894ZM35.1792 20.5894V22.0421H30.7582V23.1789H35.0529V24.6315H30.7582V25.8947H35.1792V27.3473H29.1792V20.5894H35.1792ZM40.0424 24.6947H38.8424V27.221H37.2634V20.5894H41.3055C42.4424 20.5894 43.3266 21.5368 43.3266 22.6736C43.3266 23.621 42.695 24.3789 41.874 24.6315L43.8319 27.221H41.9371L40.0424 24.6947ZM41.1792 21.9789H38.9055V23.2421H41.1792C41.5582 23.2421 41.8108 22.9263 41.8108 22.6105C41.8108 22.2947 41.495 21.9789 41.1792 21.9789ZM20.7161 27.221H19.0108L18.5055 26.0842H14.7792L14.274 27.221H12.5687L15.9161 20.5894H17.4319L20.7161 27.221ZM16.6108 22.2947L15.474 24.6947H17.8108L16.6108 22.2947ZM6.56869 23.1157H9.34764C9.66343 23.1157 9.91606 22.8631 9.91606 22.5473C9.91606 22.2315 9.66343 21.9789 9.34764 21.9789H6.56869V23.1157ZM6.56869 25.7684H9.4108C9.78975 25.7684 10.0424 25.5157 10.0424 25.1368C10.0424 24.7578 9.78975 24.5052 9.4108 24.5052H6.56869V25.7684ZM11.0529 23.7473C11.4319 24.1263 11.6845 24.6315 11.6845 25.1999C11.6845 26.3368 10.8003 27.221 9.66343 27.221H4.98975V20.5894H9.53712C10.6108 20.5894 11.495 21.4736 11.495 22.5473C11.495 22.9894 11.3055 23.4315 11.0529 23.7473ZM27.1582 28.6105V30.0631H22.7371V31.1999H27.0319V32.6526H22.7371V33.9157H27.1582V35.3684H21.1582V28.6105H27.1582ZM26.0213 38.9052C26.0213 38.5263 25.7687 38.2736 25.3897 38.2736H22.674V39.5368H25.3897C25.7687 39.5368 26.0213 39.2842 26.0213 38.9052ZM21.095 43.5157V36.8842H25.5161C26.6529 36.8842 27.5371 37.8315 27.5371 38.9684C27.5371 39.8526 27.0319 40.5473 26.274 40.8631L28.295 43.5157H26.4003L24.5055 40.9894H22.674V43.5157H21.095Z" fill="#ADADAD"/>
<path d="M48.0631 22.4842C47.3052 9.97895 36.8842 0 24.1263 0C11.3684 0 0.947348 9.97895 0.189453 22.4842C0.189453 22.9895 0.252611 23.4947 0.315769 24C0.821032 28.1684 2.39998 32.0211 4.79998 35.2421C9.15787 41.1789 16.1684 45.0316 24.1263 45.0316C13.0105 45.0316 3.91577 36.379 3.15787 25.5158C3.09472 25.0105 3.09472 24.5053 3.09472 24C3.09472 23.4947 3.09472 22.9895 3.15787 22.4842C3.91577 11.6211 13.0105 2.96842 24.1263 2.96842C32.0842 2.96842 39.0947 6.82105 43.4526 12.7579C45.8526 15.9789 47.4316 19.8316 47.9368 24C48 24.5053 48.0631 25.0105 48.0631 25.4526C48.0631 24.9474 48.1263 24.4421 48.1263 23.9368C48.1263 23.4947 48.1263 22.9895 48.0631 22.4842Z" fill="#ADADAD"/>
<path d="M0.189623 25.5158C0.947518 38.021 11.3686 48 24.1265 48C36.8844 48 47.3054 38.021 48.0633 25.5158C48.0633 25.0105 48.0002 24.5052 47.937 24C47.4317 19.8315 45.8528 15.9789 43.4528 12.7579C39.0949 6.82102 32.0844 2.96838 24.1265 2.96838C35.2423 2.96838 44.337 11.621 45.0949 22.4842C45.1581 22.9894 45.158 23.4947 45.158 24C45.158 24.5052 45.1581 25.0105 45.0949 25.5158C44.337 36.4421 35.2423 45.0315 24.1265 45.0315C16.1686 45.0315 9.15804 41.1789 4.80015 35.2421C2.40015 32.021 0.821202 28.1684 0.315939 24C0.252781 23.4947 0.189623 22.9894 0.189623 22.5473C0.189623 23.0526 0.126465 23.5579 0.126465 24.0631C0.126465 24.5052 0.126465 25.0105 0.189623 25.5158Z" fill="#ADADAD"/>
</g>
<defs>
<clipPath id="clip0_210_2358">
<rect width="48" height="48" fill="white"/>
</clipPath>
</defs>
</svg>
